HIERARCHY
ROOT Hips
{
  OFFSET 0.0 0.0 0.0
  CHANNELS 6 Xposition Yposition Zposition Zrotation Xrotation Yrotation
  JOINT Spine
  {
    OFFSET 0 10.0588 -0.358159
    CHANNELS 3 Zrotation Xrotation Yrotation
    JOINT Spine1
    {
      OFFSET 0 11.7428 0
      CHANNELS 3 Zrotation Xrotation Yrotation
      JOINT Spine2
      {
        OFFSET 0 13.4203 0
        CHANNELS 3 Zrotation Xrotation Yrotation
        JOINT Neck
        {
          OFFSET 0 15.0978 0
          CHANNELS 3 Zrotation Xrotation Yrotation
          JOINT Head
          {
            OFFSET 0 8.08558 2.68779
            CHANNELS 3 Zrotation Xrotation Yrotation
            End Site
            {
              OFFSET 0 21.4992 7.1467
            }
          }
        }
        JOINT LeftShoulder
        {
          OFFSET 5.94911 13.2477 -0.0644513
          CHANNELS 3 Zrotation Xrotation Yrotation
          JOINT LeftArm
          {
            OFFSET 0 12.4722 0
            CHANNELS 3 Zrotation Xrotation Yrotation
            JOINT LeftForeArm
            {
              OFFSET 0 23.8149 -0.00137086
              CHANNELS 3 Zrotation Xrotation Yrotation
              JOINT LeftHand
              {
                OFFSET 0 24.5563 1.57681e-05
                CHANNELS 3 Zrotation Xrotation Yrotation
                End Site
                {
                  OFFSET -1.85578 17.3552 -0.291151
                }
              }
            }
          }
        }
        JOINT RightShoulder
        {
          OFFSET -5.94912 13.2478 -0.0672963
          CHANNELS 3 Zrotation Xrotation Yrotation
          JOINT RightArm
          {
            OFFSET 0 12.4722 0
            CHANNELS 3 Zrotation Xrotation Yrotation
            JOINT RightForeArm
            {
              OFFSET 0 23.8199 0.0003812
              CHANNELS 3 Zrotation Xrotation Yrotation
              JOINT RightHand
              {
                OFFSET 1.5349e-05 24.5599 0.000369879
                CHANNELS 3 Zrotation Xrotation Yrotation
                End Site
                {
                  OFFSET 1.86614 17.4983 -0.349753
                }
              }
            }
          }
        }
      }
    }
  }
  JOINT LeftUpLeg
  {
    OFFSET 9.3921 -5.57221 -0.0932128
    CHANNELS 3 Zrotation Xrotation Yrotation
    JOINT LeftLeg
    {
      OFFSET 0 42.3183 1.21018e-05
      CHANNELS 3 Zrotation Xrotation Yrotation
      JOINT LeftFoot
      {
        OFFSET 0 39.0997 -1.20453e-05
        CHANNELS 3 Zrotation Xrotation Yrotation
        JOINT LeftToe
        {
          OFFSET 0 14.7062 0
          CHANNELS 3 Zrotation Xrotation Yrotation
          End Site
          {
            OFFSET 0 5.95384 0
          }
        }
      }
    }
  }
  JOINT RightUpLeg
  {
    OFFSET -9.39211 -5.57221 -0.0152232
    CHANNELS 3 Zrotation Xrotation Yrotation
    JOINT RightLeg
    {
      OFFSET 0 42.326 -1.6593e-05
      CHANNELS 3 Zrotation Xrotation Yrotation
      JOINT RightFoot
      {
        OFFSET -1.39272e-05 39.0933 1.79539e-05
        CHANNELS 3 Zrotation Xrotation Yrotation
        JOINT RightToe
        {
          OFFSET 0 14.5999 0
          CHANNELS 3 Zrotation Xrotation Yrotation
          End Site
          {
            OFFSET 0 6.0364 0
          }
        }
      }
    }
  }
}
MOTION
Frames:	15
Frame Time:	0.0416667
11.5454 97.1465 286.178 6.09925 -4.85435 -60.2773 3.08056 1.94548 -2.47335 2.92205 -2.12335 0.18034 2.32351 -1.3209 -2.07477 0.873528 0.793074 -3.2284 -5.14452 1.26279 -8.12287 -115.019 -4.08066 88.1125 -0.116845 51.8728 8.43175 17.2782 10.6108 -2.3266 -1.86867 -18.3134 -17.4838 107.624 -0.760682 -91.2467 33.4384 49.8226 -15.9247 -27.599 -6.58923 -1.28266 15.8911 7.84538 3.28501 -166.142 32.4302 -22.7059 3.51075 -37.1398 5.99735 -9.51136 47.9524 5.72686 0.154186 33.2966 -0.280864 156.224 32.066 22.1596 -10.6567 -53.9186 -9.67986 21.5621 63.3363 -15.4978 0.0329817 33.5225 -0.0597201 
11.0666 97.9263 287.892 4.49651 -2.44962 -58.4576 4.32057 1.61952 -1.06635 2.70036 -0.886534 0.981722 1.63684 -1.3927 -1.62172 0.0401806 1.5473 -3.62616 -6.30406 2.03741 -8.19772 -114.572 -4.49644 88.7594 -3.48514 55.0184 11.5843 10.314 8.26065 -1.06602 -1.6029 -11.6779 -12.7649 107.768 -0.619803 -90.6652 30.7859 51.8997 -15.1159 -26.8118 -6.31064 -0.714345 15.4984 5.94997 3.41917 -165.877 32.728 -21.0742 4.21202 -37.2771 8.39079 -12.5583 48.0418 12.4744 0.154186 33.2966 -0.280864 159.955 29.5884 21.3006 -8.71341 -52.1767 -8.48658 8.36543 64.2303 -3.20335 0.0329817 33.5225 -0.0597201 
10.5193 99.2459 289.823 3.47931 -1.05499 -56.8532 6.05413 0.81806 0.368908 2.68032 0.194243 1.96747 0.471674 -1.53226 -1.22203 -0.797086 2.46602 -4.36658 -7.32662 2.80388 -7.89448 -113.847 -4.66764 89.2955 -6.54898 56.4803 14.0225 5.64182 6.67986 -0.401838 -2.58853 -6.00114 -7.70329 107.672 -0.214605 -90.4109 27.2372 53.47 -12.9713 -26.7863 -6.39158 -0.0894667 14.1623 3.53628 3.73833 -167.099 31.7868 -19.1076 3.97481 -36.0297 10.1516 -14.4738 49.0132 19.1807 0.154186 33.2966 -0.280864 163.396 26.9239 21.1636 -5.91293 -49.8999 -6.40646 -10.7569 64.628 16.2847 0.0329817 33.5225 -0.0597201 
9.9002 100.621 291.727 3.14273 -0.717556 -53.6702 7.21047 -0.203922 1.28559 2.79089 0.76417 2.6532 -0.359984 -1.76018 -0.810816 -1.23359 3.2305 -4.55631 -7.60958 3.40194 -7.21352 -112.612 -4.3523 89.3874 -8.46231 56.687 14.8263 2.57289 5.96943 0.054834 -3.99442 -1.01815 -3.6281 107.292 0.150189 -89.9507 23.7878 54.7854 -11.0103 -27.3687 -6.54764 0.417398 12.9494 1.34906 3.71815 -170.197 29.9626 -15.9716 3.9615 -33.165 12.2917 -15.6537 49.4058 22.9393 0.154186 33.2966 -0.280864 165.688 23.9029 20.9592 -3.62565 -47.1983 -3.03704 -19.5463 65.6806 25.4361 0.0329817 33.5225 -0.0597201 
9.08226 101.618 293.396 3.30705 -0.942151 -50.4722 7.7593 -1.27559 1.77213 2.77647 1.07993 3.67302 -0.875183 -1.94254 -0.508319 -1.40169 3.80484 -4.10936 -7.61364 3.91051 -6.20254 -111.118 -4.08134 89.4147 -9.53379 56.1841 13.5296 0.845731 5.63694 0.482555 -5.37429 2.45102 -2.39002 107.018 0.759878 -89.6279 20.3588 55.6706 -10.0291 -28.3467 -6.88034 0.783508 12.2341 0.831669 3.26397 -172.572 27.6303 -13.6879 4.07963 -30.1538 13.7046 -12.85 50.7854 17.8995 0.154186 33.2966 -0.280864 167.39 21.1638 20.931 -1.67694 -44.3638 0.269954 -18.9771 66.0803 25.1715 0.0329817 33.5225 -0.0597201 
8.12162 102.295 294.822 3.79534 -1.40785 -46.0988 8.09221 -2.20867 1.62662 2.84272 1.05299 4.13464 -1.18728 -2.1204 -0.619992 -1.47104 4.25991 -3.5841 -7.55863 4.1765 -5.01973 -109.728 -3.85172 89.3709 -10.288 55.9445 10.6875 0.105786 5.50881 0.739632 -6.74693 4.43771 -3.94901 106.814 1.05147 -89.2295 17.0834 56.1048 -9.93708 -29.6375 -7.30647 1.02894 12.0044 2.4862 3.20026 -173.381 24.9367 -13.6083 3.42408 -27.2936 13.868 -6.10546 52.7069 5.83395 0.154186 33.2966 -0.280864 169.488 18.3618 20.9445 -1.02639 -41.6073 1.63373 -18.8167 65.7846 24.5056 0.0329817 33.5225 -0.0597201 
6.98514 102.574 295.958 4.10093 -2.31919 -39.7309 7.44872 -2.33437 1.03438 2.86209 0.58886 3.47254 -0.884278 -2.32797 -0.698805 -1.44913 4.38553 -2.93916 -6.87701 3.92036 -4.20661 -108.545 -3.64345 89.2878 -11.4044 56.1622 8.2399 -0.0939492 5.62261 0.73681 -8.22572 5.71569 -6.14638 106.801 0.628921 -88.5808 15.1852 56.6933 -10.8548 -31.2621 -7.42582 0.964652 11.8657 4.91953 4.00218 -173.735 23.3828 -14.5097 2.3036 -27.7915 11.7658 -0.0969676 54.4552 -0.831029 0.154186 33.2966 -0.280864 170.775 15.3007 20.1552 -2.03616 -39.5391 2.87424 -19.8695 64.6413 25.6985 0.0329817 33.5225 -0.0597201 
5.30104 102.501 296.981 4.23948 -3.32757 -34.2676 5.73543 -1.89409 0.712438 2.62458 -0.151773 2.97235 -0.0817676 -2.4443 -0.0267022 -1.27653 4.07032 -2.07424 -5.62566 3.34982 -3.87027 -107.68 -3.76871 89.4312 -12.6567 56.335 7.00015 0.00255713 5.71609 0.556635 -9.65028 6.56981 -7.23538 107.112 -0.166922 -87.8584 14.6682 57.5854 -12.1021 -32.416 -7.0464 0.623228 11.3652 6.84575 5.43822 -173.265 22.5103 -15.5077 1.55663 -30.1031 8.34567 2.85204 54.9528 -2.05916 0.154186 33.2966 -0.280864 171.434 12.3378 19.3221 -2.64175 -38.7193 4.75501 -22.65 63.5057 30.8955 0.0329817 33.5225 -0.0597201 
3.9426 102.463 298.166 4.65128 -3.51973 -30.524 4.45971 -1.68186 0.89187 1.97768 -0.484976 2.92325 0.202648 -2.3605 0.731216 -1.17818 3.52283 -1.34372 -4.7029 2.62501 -3.85059 -107.255 -3.9598 89.7774 -13.0796 56.8294 6.48645 0.115433 5.73824 0.427245 -10.6306 7.00061 -6.92634 107.353 -0.641006 -87.1631 14.581 58.3052 -12.5571 -32.5933 -6.65993 0.381044 10.7985 7.62833 6.68132 -173.059 21.9213 -15.6336 1.69388 -31.6087 7.80376 4.39233 53.9745 -2.35293 0.154186 33.2966 -0.280864 171.881 10.1919 18.66 -2.6806 -38.1967 5.37014 -26.6143 63.1627 37.6912 0.0329817 33.5225 -0.0597201 
2.97355 102.282 299.36 4.89815 -3.22664 -27.5578 3.25065 -1.26253 1.99967 1.79585 -0.674117 2.93351 0.828853 -2.39759 1.72454 -0.80155 2.45598 -0.465107 -4.51002 1.96937 -4.03002 -107.467 -4.36717 89.7518 -12.516 57.2513 5.99516 -0.0723292 4.82632 0.151278 -11.0947 7.24239 -5.58148 106.949 -1.11427 -86.402 15.2244 58.5289 -12.8357 -31.1565 -6.43897 0.201408 10.5292 7.55536 7.2839 -173.354 21.5726 -15.3506 2.24998 -31.8105 9.47071 5.43653 49.793 -1.28347 0.154186 33.2966 -0.280864 171.903 9.03246 18.8485 -1.5997 -38.5012 4.49779 -33.6739 62.0813 44.8593 0.0329817 33.5225 -0.0597201 
2.22821 102.006 300.623 4.73081 -2.71483 -24.6025 2.28336 -0.81883 3.02632 1.90885 -0.742982 3.13433 1.48554 -2.27741 2.60526 -0.5121 1.86776 0.116088 -4.34302 1.77335 -4.09389 -107.517 -4.75217 89.6797 -11.2135 57.5235 4.74244 -0.0757454 3.99055 -0.11378 -10.6883 6.93906 -4.47073 106.631 -1.26193 -85.9814 15.4089 58.5876 -13.1474 -28.3131 -5.90507 0.0474925 10.5361 7.12296 6.87505 -173.474 20.9703 -15.3626 2.5317 -31.2756 10.8608 5.63223 47.5685 -0.113756 0.154186 33.2966 -0.280864 172.195 7.75181 19.321 -0.688725 -38.6184 3.81545 -37.9365 61.5726 48.7045 0.0329817 33.5225 -0.0597201 
1.86594 102.059 301.929 4.48933 -2.17106 -21.7243 1.81846 -0.448217 3.58365 2.03698 -0.711215 3.1002 1.89656 -2.266 3.22291 -0.396363 1.60321 0.358502 -4.15958 2.15551 -3.78036 -107.651 -4.84863 89.5926 -10.0173 57.6772 3.27011 -0.0606111 3.48669 -0.462205 -9.83649 6.24795 -4.2262 106.554 -1.16041 -85.8679 15.3147 58.7168 -13.3611 -24.4916 -5.18361 0.00148871 10.8381 6.3897 5.13659 -173.618 20.3791 -15.6241 2.28425 -30.2444 11.3999 6.03422 47.4769 0.113098 0.154186 33.2966 -0.280864 172.402 6.60106 19.6395 -0.355416 -38.4134 3.47223 -37.6993 61.034 47.595 0.0329817 33.5225 -0.0597201 
1.85487 102.72 303.254 4.05368 -1.45094 -19.5299 2.11435 -0.32448 3.65323 2.15614 -0.762699 2.63507 1.73141 -2.18773 3.45117 -0.425481 1.37408 0.249597 -4.15312 2.49381 -3.22943 -108.08 -4.52275 89.7117 -9.2114 57.7852 2.23615 -0.0592496 3.38916 -0.944128 -9.01503 5.51718 -4.6214 106.62 -0.818359 -86.1218 15.1649 59.047 -13.2358 -20.5057 -4.46779 0.221664 11.2613 5.45367 2.21565 -173.844 19.6055 -16.0106 1.86951 -28.5074 11.3677 6.76995 46.5945 -0.530196 0.154186 33.2966 -0.280864 172.33 6.14365 19.7632 -0.286111 -38.0912 3.69038 -31.2912 59.577 39.3773 0.0329817 33.5225 -0.0597201 
1.90737 103.566 304.187 3.89419 -0.692931 -18.33 2.38284 -0.136212 3.06863 2.09712 -0.938526 1.86931 1.25506 -2.24061 3.15255 -0.311822 1.21914 -0.0454656 -4.35702 2.29663 -2.39325 -108.485 -3.94681 89.6673 -8.05002 57.8131 1.38665 -0.0623097 3.53885 -1.49226 -8.58597 5.02188 -4.86594 106.531 -0.301179 -86.5848 15.5193 59.77 -12.9345 -17.1214 -3.66766 0.396237 11.3614 4.74013 -0.744926 -174.254 18.8312 -15.9772 1.37545 -25.8427 10.9317 7.15336 44.267 -0.714777 0.154186 33.2966 -0.280864 171.763 6.1609 19.8633 -0.430399 -37.2586 3.70715 -26.4945 57.5679 33.4968 0.0329817 33.5225 -0.0597201 
1.83855 104.253 304.51 4.12844 -0.0496827 -18.7379 2.10065 0.334441 2.18154 1.91507 -0.8316 1.0041 1.11048 -2.77827 2.58858 0.0969883 1.01378 -0.391528 -4.78747 1.41769 -1.19076 -108.633 -3.29782 89.3809 -6.4889 57.648 0.649541 -0.0651324 3.7428 -1.99118 -8.7635 4.77977 -4.59632 106.123 0.232383 -86.9738 16.4737 60.7293 -12.6588 -14.0347 -2.68116 0.385277 11.0101 4.62151 -2.35491 -174.558 18.8975 -15.628 1.5023 -24.124 11.2589 7.16283 41.396 0.1858 0.154186 33.2966 -0.280864 171.398 6.37848 19.7963 -0.766413 -35.9198 3.48382 -22.4213 56.0708 29.7343 0.0329817 33.5225 -0.0597201 
